<svg xmlns="http://www.w3.org/2000/svg" width="1440" height="480" viewBox="0 0 1440 480" role="img" aria-labelledby="title desc">
  <title id="title">MProject.furniture transparent logo</title>
  <desc id="desc">Transparent MProject.furniture logo with graphite MP symbol and neon green accent.</desc>
  <defs>
    <linearGradient id="metal" x1="0" x2="1" y1="0" y2="1">
      <stop offset="0" stop-color="#f1f4f6"/>
      <stop offset="0.14" stop-color="#9aa3ad"/>
      <stop offset="0.5" stop-color="#3d4852"/>
      <stop offset="1" stop-color="#101820"/>
    </linearGradient>
    <linearGradient id="green" x1="0" x2="1" y1="0" y2="1">
      <stop offset="0" stop-color="#6cff4f"/>
      <stop offset="1" stop-color="#1fb832"/>
    </linearGradient>
    <filter id="shadow" x="-20%" y="-22%" width="140%" height="152%">
      <feDropShadow dx="0" dy="20" stdDeviation="18" flood-color="#000000" flood-opacity="0.36"/>
    </filter>
  </defs>
  <g transform="translate(68 54) scale(.62)" filter="url(#shadow)">
    <path d="M0 248V0h78l98 123L274 0h72v248h-80V108l-76 114h-28L82 108v140z" fill="url(#metal)" stroke="#b8c0c8" stroke-width="3"/>
    <path d="M365 304V0h152c82 0 136 48 136 124s-54 124-136 124h-72v56zm80-126h66c38 0 62-20 62-54s-24-54-62-54h-66z" fill="url(#metal)" stroke="#b8c0c8" stroke-width="3"/>
    <path d="M0 310l76-44v70L0 380z" fill="url(#green)" stroke="#88ff76" stroke-width="3"/>
  </g>
  <g transform="translate(540 173)">
    <text x="0" y="0" fill="#f7fafc" font-family="Inter, Segoe UI, Arial, sans-serif" font-size="82" font-weight="800">MProject<tspan fill="#39d353">.furniture</tspan></text>
    <text x="4" y="68" fill="#a8b1ba" font-family="Inter, Segoe UI, Arial, sans-serif" font-size="24" font-weight="500" letter-spacing="1.2">ПРОФЕСІЙНЕ РІШЕННЯ ДЛЯ МЕБЛЕВОГО ВИРОБНИЦТВА</text>
  </g>
</svg>
