<svg xmlns="http://www.w3.org/2000/svg" width="1024" height="1024" viewBox="0 0 1024 1024" role="img" aria-labelledby="title">
  <title id="title">MProject maskable app icon</title>
  <rect width="1024" height="1024" fill="#111820"/>
  <g transform="translate(120 248) scale(1.02)">
    <path d="M0 248V0h86l96 138L278 0h82v248h-78V112l-86 126h-28L78 112v136z" fill="#66717b"/>
    <path d="M420 248V0h154c80 0 132 49 132 124s-52 124-132 124h-76v0zm78-70h70c36 0 58-20 58-54s-22-54-58-54h-70z" fill="#66717b"/>
    <path d="M0 318l86-49v78L0 394z" fill="#39d353"/>
  </g>
</svg>
