<svg xmlns="http://www.w3.org/2000/svg" width="1024" height="1024" viewBox="0 0 1024 1024" role="img" aria-labelledby="title desc">
  <title id="title">MProject maskable app icon</title>
  <desc id="desc">Maskable app icon with safe padding.</desc>
  <rect width="1024" height="1024" fill="#111820"/>
  <g transform="translate(122 264) scale(1.08)">
    <path d="M0 248V0h78l98 123L274 0h72v248h-80V108l-76 114h-28L82 108v140z" fill="#7d8791"/>
    <path d="M365 304V0h152c82 0 136 48 136 124s-54 124-136 124h-72v56zm80-126h66c38 0 62-20 62-54s-24-54-62-54h-66z" fill="#7d8791"/>
    <path d="M0 310l76-44v70L0 380z" fill="#39d353"/>
  </g>
</svg>
